<svg width="60" height="60" viewBox="0 0 60 60" fill="none" xmlns="http://www.w3.org/2000/svg">
<path d="M0 7C0 3.13401 3.13401 0 7 0H53C56.866 0 60 3.13401 60 7V53C60 56.866 56.866 60 53 60H7C3.13401 60 0 56.866 0 53V7Z" fill="#1C262B"/>
<path d="M47.9099 14.0901C47.9099 12.9855 47.0145 12.0901 45.9099 12.0901L27.9099 12.0901C26.8053 12.0901 25.9099 12.9855 25.9099 14.0901C25.9099 15.1947 26.8053 16.0901 27.9099 16.0901L43.9099 16.0901L43.9099 32.0901C43.9099 33.1947 44.8053 34.0901 45.9099 34.0901C47.0145 34.0901 47.9099 33.1947 47.9099 32.0901L47.9099 14.0901ZM14.0901 45.9099L15.5043 47.3241L47.3241 15.5043L45.9099 14.0901L44.4957 12.6759L12.6759 44.4957L14.0901 45.9099Z" fill="#F3F6F7"/>
</svg>
