<svg width="102" height="77" viewBox="0 0 102 77" fill="none" xmlns="http://www.w3.org/2000/svg">
<path d="M96.6761 19.8833C90.5437 13.8227 83.4659 9.09089 75.7537 5.93638C68.0415 2.71976 59.6327 1.01831 50.9752 1.01831C33.7222 1.01831 17.5391 7.77444 5.33638 19.8957L0.845894 24.3791C0.273699 25.0125 0.273699 26.0185 0.845894 26.5898L9.82687 35.5565C10.1378 35.867 10.5235 36.0036 10.9588 36.0036C11.332 36.0036 11.7176 35.8794 12.0286 35.5565L16.5191 31.0483C25.6866 21.8952 37.9515 16.7785 50.9752 16.7785C64.061 16.7785 76.2637 21.8952 85.4935 31.0483L89.9839 35.5317C90.5561 36.103 91.5637 36.103 92.1981 35.5317L101.117 26.5649C101.751 25.9315 101.751 24.9877 101.117 24.3543L96.6761 19.8833Z" fill="#209CDA"/>
<path d="M78.7887 37.7425C63.4265 22.4667 38.5236 22.4667 23.2236 37.7425L18.7331 42.2259C18.0987 42.8593 18.0987 43.8031 18.7331 44.4365L27.7141 53.4033C28.0251 53.6517 28.4107 53.8504 28.7838 53.8504C29.2317 53.8504 29.6048 53.6641 29.9158 53.4033L34.4063 48.9199C38.8346 44.4986 44.7058 42.0396 50.9626 42.0396C57.2817 42.0396 63.1653 44.4986 67.5936 48.9199L72.0841 53.4033C72.6563 53.9746 73.7261 53.9746 74.2982 53.4033L83.2792 44.4365C83.8514 43.8031 83.8514 42.7972 83.2792 42.2259L78.7887 37.7425Z" fill="#209CDA"/>
<path d="M60.9015 55.6016C55.6522 50.2985 46.3603 50.2985 41.111 55.6016C39.2825 57.4272 37.9515 59.762 37.5037 62.1714C37.3793 62.6806 37.5037 63.2395 37.8768 63.6245L49.8308 75.5595C50.1417 75.8079 50.5273 76.0066 50.9627 76.0066C51.4105 76.0066 51.7837 75.8203 52.0947 75.5595L64.1108 63.5624C64.4839 63.1898 64.6208 62.6185 64.4839 62.0472C63.9366 59.7124 62.73 57.4396 60.9015 55.6016Z" fill="#209CDA"/>
</svg>
