<svg width="71" height="88" viewBox="0 0 71 88" fill="none" xmlns="http://www.w3.org/2000/svg">
<path d="M6.24543 63.4526C3.6103 70.4614 1.60793 42.0218 7.37556 36.4412C7.48977 39.3791 8.48359 39.9272 9.22688 42.5159C10.7291 37.5788 10.8599 32.0604 12.866 27.2397C14.7735 22.6527 17.1406 19.1611 20.9381 16.1507C21.6344 17.314 22.0627 18.5643 22.7406 19.6946C26.9148 5.25617 42.3175 6.51842 52.6656 0C53.0082 2.58133 51.5667 5.46517 51.2932 8.03275C50.9883 10.8817 50.9239 13.6143 49.8748 16.2277C47.2461 22.7782 42.3129 24.3476 37.2545 28.2608C39.6041 28.028 41.6903 27.687 44.0869 27.6109C40.1466 28.5468 39.9173 32.4958 38.4592 35.1523C36.2939 39.0967 33.5703 39.5853 29.98 41.5222C32.1666 41.0749 35.2098 42.1621 36.735 43.5252C31.5219 47.0287 30.6349 53.372 26.0748 57.233C22.3528 60.3863 13.0235 62.9493 11.8639 67.8911L3.33398 82.7759C3.33398 82.7759 19.0011 30.6808 37.016 17.8255C37.016 17.8255 23.5879 17.3149 6.24543 63.4526Z" fill="#48616E"/>
<path d="M7.11313 87.9999C5.213 87.9999 3.28708 87.3683 1.58865 85.3892C0.914444 84.6036 1.00747 83.4221 1.79773 82.7501C2.588 82.0773 3.77523 82.1708 4.45036 82.9582C6.06129 84.8346 7.71273 84.5028 11.3739 83.2351C12.0877 82.9866 12.8273 82.7309 13.5771 82.5164C15.6844 81.9123 17.7955 81.2367 19.8365 80.5841C25.7948 78.6774 31.9558 76.7056 38.6223 76.3225C40.4681 76.2271 42.0247 76.8413 43.4017 77.3913C44.1735 77.7002 44.9039 77.9908 45.6223 78.1366C48.0705 78.6316 49.9504 78.7672 51.3697 78.5481C53.1621 78.2713 54.9204 76.9614 56.6206 75.6927C57.2138 75.25 57.7959 74.8164 58.3752 74.4222C58.6635 74.2279 58.9656 74.0171 59.2788 73.7952C61.7638 72.0572 64.8576 69.8774 68.1541 70.1964C69.1884 70.2917 69.9492 71.2038 69.8543 72.2341C69.7594 73.2645 68.8411 74.0189 67.8068 73.9263C65.88 73.7402 63.4226 75.4736 61.4442 76.8596C61.1154 77.0897 60.7976 77.3125 60.4955 77.5178C59.9604 77.8808 59.4234 78.2823 58.8772 78.6884C56.9034 80.1596 54.6671 81.8289 51.9444 82.2487C50.0775 82.5356 47.7638 82.3908 44.8717 81.8069C43.8162 81.5933 42.8923 81.223 41.998 80.8664C40.8412 80.4035 39.8391 80.0047 38.8369 80.0616C32.6493 80.4172 26.9848 82.2304 20.9879 84.1499C18.9192 84.8117 16.7805 85.4956 14.6179 86.1161C13.9501 86.3077 13.2796 86.5424 12.6081 86.7743C10.9889 87.3326 9.06484 87.9999 7.11313 87.9999Z" fill="#48616E"/>
</svg>
