<svg width="89" height="88" viewBox="0 0 89 88" fill="none" xmlns="http://www.w3.org/2000/svg">
<path d="M64.1836 53.2116L58.0534 67.5713H30.9462L24.816 53.2116C23.7929 50.8545 24.0098 48.1414 25.3644 45.9847C28.7814 40.5052 35.5377 29.3087 40.6648 18.4072C41.115 17.4455 42.5309 17.7606 42.5309 18.8205V47.4991C42.5309 48.0311 42.314 48.559 41.9211 48.9151C40.8817 49.8399 40.3087 51.2926 40.6852 52.8436C41.0372 54.2596 42.2198 55.3972 43.6521 55.6919C46.1852 56.2403 48.4237 54.3169 48.4237 51.8616C48.4237 50.683 47.8917 49.6436 47.0896 48.9152C46.6763 48.5632 46.4594 48.0312 46.4594 47.4992V18.8206C46.4594 17.7608 47.8754 17.4456 48.3255 18.4073C53.453 29.3088 60.2097 40.5058 63.6259 45.9848C64.9805 48.1455 65.1974 50.8546 64.1743 53.2117L64.1836 53.2116Z" fill="#239884"/>
<path d="M30.7499 71.5H58.2499C59.8745 71.5 61.1963 72.8218 61.1963 74.4464C61.1963 76.0711 59.8745 77.3929 58.2499 77.3929H30.7499C29.1252 77.3929 27.8035 76.0711 27.8035 74.4464C27.8035 72.8218 29.1252 71.5 30.7499 71.5Z" fill="#239884"/>
<path d="M55.3031 87.2144H33.6959C32.0672 87.2144 30.7495 85.8967 30.7495 84.268V81.3215H58.2495V84.268C58.2495 85.8967 56.9318 87.2144 55.3031 87.2144Z" fill="#239884"/>
<path d="M36.6428 6.67857V2.75H12.7927C12.9564 3.38021 13.071 4.03092 13.071 4.71429C13.071 5.39765 12.9564 6.04832 12.7927 6.67857H26.9764C14.6711 12.4609 5.67625 24.1728 3.67529 38.1071H7.17832C7.35019 38.1071 7.51388 38.144 7.68167 38.1603C10.0961 22.9049 21.7386 10.6928 36.7248 7.50491C36.688 7.23073 36.6428 6.96094 36.6428 6.67857Z" fill="#239884"/>
<path d="M81.8215 38.1071H85.3245C83.3193 24.1728 74.3287 12.4614 62.0234 6.67857H76.2071C76.0434 6.04837 75.9288 5.39765 75.9288 4.71429C75.9288 4.03092 76.0434 3.38025 76.2071 2.75H52.357V6.67857C52.357 6.96094 52.312 7.23102 52.2751 7.50521C67.2655 10.6931 78.9077 22.9 81.3183 38.1606C81.4861 38.1443 81.6496 38.1071 81.8215 38.1071Z" fill="#239884"/>
<path d="M3.24993 42.0356H7.1785C8.263 42.0356 9.14279 43.1201 9.14279 43.9999V47.9285C9.14279 49.013 8.26296 49.8928 7.1785 49.8928H3.24993C2.16544 49.8928 1.28564 48.8083 1.28564 47.9285V43.9999C1.28564 42.9154 2.16548 42.0356 3.24993 42.0356Z" fill="#239884"/>
<path d="M81.8215 42.0356H85.75C86.8345 42.0356 87.7143 43.1201 87.7143 43.9999V47.9285C87.7143 49.013 86.8345 49.8928 85.75 49.8928H81.8215C80.737 49.8928 79.8572 48.8083 79.8572 47.9285V43.9999C79.8572 42.9154 80.737 42.0356 81.8215 42.0356Z" fill="#239884"/>
<path d="M42.5358 0.785645H46.4644C47.5489 0.785645 48.4287 1.87014 48.4287 2.74993V6.6785C48.4287 7.763 47.5488 8.64279 46.4644 8.64279H42.5358C41.4513 8.64279 40.5715 7.55829 40.5715 6.6785V2.74993C40.5715 1.66544 41.4514 0.785645 42.5358 0.785645Z" fill="#239884"/>
<path d="M9.14279 4.71422C9.14279 9.95231 1.28564 9.95231 1.28564 4.71422C1.28564 -0.523879 9.14279 -0.523879 9.14279 4.71422Z" fill="#239884"/>
<path d="M87.7143 4.71422C87.7143 9.95231 79.8572 9.95231 79.8572 4.71422C79.8572 -0.523879 87.7143 -0.523879 87.7143 4.71422Z" fill="#239884"/>
</svg>
