<svg xmlns="http://www.w3.org/2000/svg" version="1.1" viewBox="-5.0 -10.0 110.0 135.0">
 <path d="m68.789 58.793-5.8516 13.707h-25.875l-5.8516-13.707c-0.97656-2.25-0.76953-4.8398 0.52344-6.8984 3.2617-5.2305 9.7109-15.918 14.605-26.324 0.42969-0.91797 1.7812-0.61719 1.7812 0.39453v27.375c0 0.50781-0.20703 1.0117-0.58203 1.3516-0.99219 0.88281-1.5391 2.2695-1.1797 3.75 0.33594 1.3516 1.4648 2.4375 2.832 2.7188 2.418 0.52344 4.5547-1.3125 4.5547-3.6562 0-1.125-0.50781-2.1172-1.2734-2.8125-0.39453-0.33594-0.60156-0.84375-0.60156-1.3516v-27.375c0-1.0117 1.3516-1.3125 1.7812-0.39453 4.8945 10.406 11.344 21.094 14.605 26.324 1.293 2.0625 1.5 4.6484 0.52344 6.8984z"/>
 <path d="m36.875 76.25h26.25c1.5508 0 2.8125 1.2617 2.8125 2.8125s-1.2617 2.8125-2.8125 2.8125h-26.25c-1.5508 0-2.8125-1.2617-2.8125-2.8125s1.2617-2.8125 2.8125-2.8125z"/>
 <path d="m60.312 91.25h-20.625c-1.5547 0-2.8125-1.2578-2.8125-2.8125v-2.8125h26.25v2.8125c0 1.5547-1.2578 2.8125-2.8125 2.8125z"/>
 <path d="m42.5 14.375v-3.75h-22.766c0.15625 0.60156 0.26562 1.2227 0.26562 1.875s-0.10938 1.2734-0.26562 1.875h13.539c-11.746 5.5195-20.332 16.699-22.242 30h3.3438c0.16406 0 0.32031 0.035156 0.48047 0.050781 2.3047-14.562 13.418-26.219 27.723-29.262-0.035156-0.26172-0.078125-0.51953-0.078125-0.78906z"/>
 <path d="m85.625 44.375h3.3438c-1.9141-13.301-10.496-24.48-22.242-30h13.539c-0.15625-0.60156-0.26562-1.2227-0.26562-1.875s0.10938-1.2734 0.26562-1.875h-22.766v3.75c0 0.26953-0.042969 0.52734-0.078125 0.78906 14.309 3.043 25.422 14.695 27.723 29.262 0.16016-0.015625 0.31641-0.050781 0.48047-0.050781z"/>
 <path d="m10.625 48.125h3.75c1.0352 0 1.875 1.0352 1.875 1.875v3.75c0 1.0352-0.83984 1.875-1.875 1.875h-3.75c-1.0352 0-1.875-1.0352-1.875-1.875v-3.75c0-1.0352 0.83984-1.875 1.875-1.875z"/>
 <path d="m85.625 48.125h3.75c1.0352 0 1.875 1.0352 1.875 1.875v3.75c0 1.0352-0.83984 1.875-1.875 1.875h-3.75c-1.0352 0-1.875-1.0352-1.875-1.875v-3.75c0-1.0352 0.83984-1.875 1.875-1.875z"/>
 <path d="m48.125 8.75h3.75c1.0352 0 1.875 1.0352 1.875 1.875v3.75c0 1.0352-0.83984 1.875-1.875 1.875h-3.75c-1.0352 0-1.875-1.0352-1.875-1.875v-3.75c0-1.0352 0.83984-1.875 1.875-1.875z"/>
 <path d="m16.25 12.5c0 5-7.5 5-7.5 0s7.5-5 7.5 0"/>
 <path d="m91.25 12.5c0 5-7.5 5-7.5 0s7.5-5 7.5 0"/>
<text x="0.0" y="117.5" font-size="5.0" font-weight="bold" font-family="Arbeit Regular, Helvetica, Arial-Unicode, Arial, Sans-serif" fill="#000000">Created by Hilmy Abiyyu Asad</text><text x="0.0" y="122.5" font-size="5.0" font-weight="bold" font-family="Arbeit Regular, Helvetica, Arial-Unicode, Arial, Sans-serif" fill="#000000">from Noun Project</text></svg>