<svg xmlns="http://www.w3.org/2000/svg" xmlns:xlink="http://www.w3.org/1999/xlink" version="1.1" x="0px" y="0px" viewBox="0 0 100 125" style="enable-background:new 0 0 100 100;" xml:space="preserve"><path d="M86.72,35.01c-4.93-4.88-10.62-8.69-16.82-11.23c-6.2-2.59-12.96-3.96-19.92-3.96c-13.87,0-26.88,5.44-36.69,15.2  l-3.61,3.61c-0.46,0.51-0.46,1.32,0,1.78l7.22,7.22c0.25,0.25,0.56,0.36,0.91,0.36c0.3,0,0.61-0.1,0.86-0.36L22.28,44  c7.37-7.37,17.23-11.49,27.7-11.49c10.52,0,20.33,4.12,27.75,11.49l3.61,3.61c0.46,0.46,1.27,0.46,1.78,0l7.17-7.22  c0.51-0.51,0.51-1.27,0-1.78L86.72,35.01z"/><path d="M72.34,49.39c-12.35-12.3-32.37-12.3-44.67,0L24.06,53c-0.51,0.51-0.51,1.27,0,1.78l7.22,7.22c0.25,0.2,0.56,0.36,0.86,0.36  c0.36,0,0.66-0.15,0.91-0.36l3.61-3.61c3.56-3.56,8.28-5.54,13.31-5.54c5.08,0,9.81,1.98,13.37,5.54l3.61,3.61  c0.46,0.46,1.32,0.46,1.78,0l7.22-7.22c0.46-0.51,0.46-1.32,0-1.78L72.34,49.39z"/><path d="M57.96,63.77c-4.22-4.27-11.69-4.27-15.91,0c-1.47,1.47-2.54,3.35-2.9,5.29c-0.1,0.41,0,0.86,0.3,1.17l9.61,9.61  c0.25,0.2,0.56,0.36,0.91,0.36c0.36,0,0.66-0.15,0.91-0.36l9.66-9.66c0.3-0.3,0.41-0.76,0.3-1.22  C60.4,67.08,59.43,65.25,57.96,63.77z"/><text x="0" y="115" fill="#000000" font-size="5px" font-weight="bold" font-family="'Helvetica Neue', Helvetica, Arial-Unicode, Arial, Sans-serif">Created by NAPISAH</text><text x="0" y="120" fill="#000000" font-size="5px" font-weight="bold" font-family="'Helvetica Neue', Helvetica, Arial-Unicode, Arial, Sans-serif">from the Noun Project</text></svg>